<mxfile host="app.diagrams.net" modified="2023-10-27T12:05:10.932Z" agent="Mozilla/5.0 (Windows NT 10.0; Win64; x64) AppleWebKit/537.36 (KHTML, like Gecko) Chrome/118.0.0.0 Safari/537.36 Edg/118.0.2088.69" etag="WmcYDtnPa6pdfKYUc_Tc" version="21.8.2" type="device">
  <diagram name="Page-1" id="7DeVZIFvzE9CsCIH5CcQ">
    <mxGraphModel dx="1379" dy="796" grid="1" gridSize="10" guides="1" tooltips="1" connect="1" arrows="1" fold="1" page="1" pageScale="1" pageWidth="827" pageHeight="1169" math="0" shadow="0">
      <root>
        <mxCell id="0" />
        <mxCell id="1" parent="0" />
        <mxCell id="UdawxDXyG-s9jcv0-Ka9-1" value="Software Testing Strategies" style="ellipse;whiteSpace=wrap;html=1;aspect=fixed;fillColor=#e51400;strokeColor=#B20000;fontColor=#ffffff;" vertex="1" parent="1">
          <mxGeometry x="352.5" y="330" width="140" height="140" as="geometry" />
        </mxCell>
        <mxCell id="UdawxDXyG-s9jcv0-Ka9-28" value="" style="edgeStyle=orthogonalEdgeStyle;rounded=0;orthogonalLoop=1;jettySize=auto;html=1;" edge="1" parent="1" source="UdawxDXyG-s9jcv0-Ka9-2" target="UdawxDXyG-s9jcv0-Ka9-1">
          <mxGeometry relative="1" as="geometry" />
        </mxCell>
        <mxCell id="UdawxDXyG-s9jcv0-Ka9-2" value="Precise Require,emt Specification" style="ellipse;whiteSpace=wrap;html=1;aspect=fixed;fillColor=#ffe6cc;strokeColor=#d79b00;" vertex="1" parent="1">
          <mxGeometry x="190" y="360" width="105" height="105" as="geometry" />
        </mxCell>
        <mxCell id="UdawxDXyG-s9jcv0-Ka9-4" value="Object Clarity" style="ellipse;whiteSpace=wrap;html=1;aspect=fixed;fillColor=#f5f5f5;fontColor=#333333;strokeColor=#666666;" vertex="1" parent="1">
          <mxGeometry x="190" y="200" width="105" height="105" as="geometry" />
        </mxCell>
        <mxCell id="UdawxDXyG-s9jcv0-Ka9-23" value="" style="edgeStyle=orthogonalEdgeStyle;rounded=0;orthogonalLoop=1;jettySize=auto;html=1;" edge="1" parent="1" source="UdawxDXyG-s9jcv0-Ka9-9" target="UdawxDXyG-s9jcv0-Ka9-1">
          <mxGeometry relative="1" as="geometry" />
        </mxCell>
        <mxCell id="UdawxDXyG-s9jcv0-Ka9-9" value="User Profiling" style="ellipse;whiteSpace=wrap;html=1;aspect=fixed;fillColor=#dae8fc;strokeColor=#6c8ebf;" vertex="1" parent="1">
          <mxGeometry x="370" y="190" width="105" height="105" as="geometry" />
        </mxCell>
        <mxCell id="UdawxDXyG-s9jcv0-Ka9-26" style="edgeStyle=orthogonalEdgeStyle;rounded=0;orthogonalLoop=1;jettySize=auto;html=1;entryX=1;entryY=0;entryDx=0;entryDy=0;" edge="1" parent="1" source="UdawxDXyG-s9jcv0-Ka9-11" target="UdawxDXyG-s9jcv0-Ka9-1">
          <mxGeometry relative="1" as="geometry">
            <Array as="points">
              <mxPoint x="472" y="290" />
            </Array>
          </mxGeometry>
        </mxCell>
        <mxCell id="UdawxDXyG-s9jcv0-Ka9-11" value="Structured Test Plan" style="ellipse;whiteSpace=wrap;html=1;aspect=fixed;" vertex="1" parent="1">
          <mxGeometry x="550" y="190" width="105" height="105" as="geometry" />
        </mxCell>
        <mxCell id="UdawxDXyG-s9jcv0-Ka9-25" value="" style="edgeStyle=orthogonalEdgeStyle;rounded=0;orthogonalLoop=1;jettySize=auto;html=1;" edge="1" parent="1" source="UdawxDXyG-s9jcv0-Ka9-13" target="UdawxDXyG-s9jcv0-Ka9-1">
          <mxGeometry relative="1" as="geometry" />
        </mxCell>
        <mxCell id="UdawxDXyG-s9jcv0-Ka9-13" value="Self-testng software" style="ellipse;whiteSpace=wrap;html=1;aspect=fixed;fillColor=#d5e8d4;strokeColor=#82b366;" vertex="1" parent="1">
          <mxGeometry x="550" y="360" width="105" height="105" as="geometry" />
        </mxCell>
        <mxCell id="UdawxDXyG-s9jcv0-Ka9-15" value="Filter with Formal Reviews" style="ellipse;whiteSpace=wrap;html=1;aspect=fixed;fillColor=#bac8d3;strokeColor=#23445d;" vertex="1" parent="1">
          <mxGeometry x="550" y="530" width="105" height="105" as="geometry" />
        </mxCell>
        <mxCell id="UdawxDXyG-s9jcv0-Ka9-24" value="" style="edgeStyle=orthogonalEdgeStyle;rounded=0;orthogonalLoop=1;jettySize=auto;html=1;" edge="1" parent="1" source="UdawxDXyG-s9jcv0-Ka9-17" target="UdawxDXyG-s9jcv0-Ka9-1">
          <mxGeometry relative="1" as="geometry" />
        </mxCell>
        <mxCell id="UdawxDXyG-s9jcv0-Ka9-17" value="Technical Review Evaluation" style="ellipse;whiteSpace=wrap;html=1;aspect=fixed;fillColor=#e1d5e7;strokeColor=#9673a6;" vertex="1" parent="1">
          <mxGeometry x="370" y="530" width="105" height="105" as="geometry" />
        </mxCell>
        <mxCell id="UdawxDXyG-s9jcv0-Ka9-19" value="Continuous Improvement" style="ellipse;whiteSpace=wrap;html=1;aspect=fixed;fillColor=#f8cecc;strokeColor=#b85450;" vertex="1" parent="1">
          <mxGeometry x="190" y="530" width="105" height="105" as="geometry" />
        </mxCell>
        <mxCell id="UdawxDXyG-s9jcv0-Ka9-27" style="edgeStyle=orthogonalEdgeStyle;rounded=0;orthogonalLoop=1;jettySize=auto;html=1;entryX=0.089;entryY=0.25;entryDx=0;entryDy=0;entryPerimeter=0;" edge="1" parent="1" source="UdawxDXyG-s9jcv0-Ka9-4" target="UdawxDXyG-s9jcv0-Ka9-1">
          <mxGeometry relative="1" as="geometry">
            <Array as="points">
              <mxPoint x="340" y="290" />
              <mxPoint x="340" y="365" />
            </Array>
          </mxGeometry>
        </mxCell>
        <mxCell id="UdawxDXyG-s9jcv0-Ka9-29" style="edgeStyle=orthogonalEdgeStyle;rounded=0;orthogonalLoop=1;jettySize=auto;html=1;entryX=0.054;entryY=0.786;entryDx=0;entryDy=0;entryPerimeter=0;" edge="1" parent="1" source="UdawxDXyG-s9jcv0-Ka9-19" target="UdawxDXyG-s9jcv0-Ka9-1">
          <mxGeometry relative="1" as="geometry">
            <Array as="points">
              <mxPoint x="243" y="500" />
              <mxPoint x="360" y="500" />
            </Array>
          </mxGeometry>
        </mxCell>
        <mxCell id="UdawxDXyG-s9jcv0-Ka9-30" style="edgeStyle=orthogonalEdgeStyle;rounded=0;orthogonalLoop=1;jettySize=auto;html=1;entryX=0.918;entryY=0.85;entryDx=0;entryDy=0;entryPerimeter=0;" edge="1" parent="1" source="UdawxDXyG-s9jcv0-Ka9-15" target="UdawxDXyG-s9jcv0-Ka9-1">
          <mxGeometry relative="1" as="geometry">
            <Array as="points">
              <mxPoint x="603" y="500" />
              <mxPoint x="481" y="500" />
            </Array>
          </mxGeometry>
        </mxCell>
      </root>
    </mxGraphModel>
  </diagram>
</mxfile>
